# xmcd
#
# Track frame offsets: 
#        150
#        12724
#        35392
#        51711
#        73831
#        100788
#        128613
#        173545
#        190587
#        204136
#        217988
#        229230
#        258690
#        279707
#        295228
#        299712
#        304145
#        308642
#        312293
#        313324
#        318051
#        322460
#        326958
#
# Disc length: 4410 seconds
#
# Revision: 1
# Processed by: cddbd v1.5.1PL0 Copyright (c) Steve Scherf et al.
# Submitted via: ExactAudioCopy v0.95b3
#
DISCID=6d113817
DTITLE=Canned Heat - The Boogie House Tapes 1969 - 1999, Vol. 2 [CD
DTITLE=1)
DYEAR=2004
DGENRE=Blues
TTITLE0=Struttin´ That Stuff
TTITLE1=Go To Utah
TTITLE2=Hell´s On Down The Road
TTITLE3=You Tease Me
TTITLE4=Something´s Gotta Go
TTITLE5=Please Don´t Bother Me
TTITLE6=Get Off My Back
TTITLE7=Saturday Blues
TTITLE8=Blind Melon
TTITLE9=Sloppy Drunk
TTITLE10=Death Bed Blues
TTITLE11=Sneakin´ Around
TTITLE12=Get On My Airplane
TTITLE13=Wolfman´s Blues
TTITLE14=Seven Up - Boogie (Commercial)
TTITLE15=Seven Up - Blues (Commercial)
TTITLE16=Schlitz Beer (Commercial)
TTITLE17=Levi´s (Commercial)
TTITLE18=Music City (Commercial)
TTITLE19=Smokey The Bear (Commercial)
TTITLE20=Living The Blues (Spot)
TTITLE21=Boogie With Canned Heat (Spot)
TTITLE22=Hallelujah (Spot)
EXTD=
EXTT0=
EXTT1=
EXTT2=
EXTT3=
EXTT4=
EXTT5=
EXTT6=
EXTT7=
EXTT8=
EXTT9=
EXTT10=
EXTT11=
EXTT12=
EXTT13=
EXTT14=
EXTT15=
EXTT16=
EXTT17=
EXTT18=
EXTT19=
EXTT20=
EXTT21=
EXTT22=
PLAYORDER=
